<svg width="512" height="512" viewBox="0 0 512 512" fill="none" xmlns="http://www.w3.org/2000/svg">
<rect width="512" height="512" fill="#3C3C3C"/>
<g filter="url(#filter0_d)">
<path fill-rule="evenodd" clip-rule="evenodd" d="M258.24 404.24C158.21 404.24 77.12 323.15 77.12 223.12C77.12 191.051 85.4547 160.928 100.076 134.8L72 82.96L137.537 88.08C169.575 59.4233 211.873 42 258.24 42C358.27 42 439.36 123.09 439.36 223.12C439.36 272.451 439.36 364.56 437.44 404.24H288.32V469.52H201.28V442.64H261.44V404.24H258.24ZM105.28 223.12C105.28 323.15 185.28 377.36 258.24 377.36H410.56V223.12C410.56 123.09 326.72 72.08 258.24 72.08C158.21 72.08 105.28 149.52 105.28 223.12Z" fill="#199861"/>
<path d="M221.12 111.12C237.76 111.12 245.44 124.56 245.44 133.52C245.44 142.48 240.32 158.48 222.4 158.48C204.48 158.48 198.08 144.4 198.08 133.52C198.08 122.64 207.04 111.12 221.12 111.12Z" fill="#199861"/>
<path d="M164.16 223.76C164.16 276.24 205.12 316.56 257.6 316.56V290.96C223.04 290.96 190.4 260.88 190.4 223.76H164.16Z" fill="#199861"/>
</g>
<defs>
<filter id="filter0_d" x="56" y="26" width="399.36" height="459.52" filterUnits="userSpaceOnUse" color-interpolation-filters="sRGB">
<feFlood flood-opacity="0" result="BackgroundImageFix"/>
<feColorMatrix in="SourceAlpha" type="matrix" values="0 0 0 0 0 0 0 0 0 0 0 0 0 0 0 0 0 0 127 0"/>
<feOffset/>
<feGaussianBlur stdDeviation="8"/>
<feColorMatrix type="matrix" values="0 0 0 0 0 0 0 0 0 0 0 0 0 0 0 0 0 0 0.25 0"/>
<feBlend mode="normal" in2="BackgroundImageFix" result="effect1_dropShadow"/>
<feBlend mode="normal" in="SourceGraphic" in2="effect1_dropShadow" result="shape"/>
</filter>
</defs>
</svg>
