<svg width="512" height="512" viewBox="0 0 512 512" fill="none" xmlns="http://www.w3.org/2000/svg">
<rect width="512" height="512" fill="#3C3C3C"/>
<g filter="url(#filter0_d)">
<path d="M222.132 133.776C238.439 133.776 245.965 146.947 245.965 155.728C245.965 164.508 240.948 180.188 223.387 180.188C205.826 180.188 199.554 166.39 199.554 155.728C199.554 145.066 208.335 133.776 222.132 133.776Z" fill="#199861"/>
<path d="M166.314 244.161C166.314 295.59 206.453 335.103 257.882 335.103V310.015C224.014 310.015 192.028 280.538 192.028 244.161H166.314Z" fill="#199861"/>
<path fill-rule="evenodd" clip-rule="evenodd" d="M222.132 133.776C238.439 133.776 245.965 146.947 245.965 155.728C245.965 164.508 240.948 180.188 223.387 180.188C205.826 180.188 199.554 166.39 199.554 155.728C199.554 145.066 208.335 133.776 222.132 133.776ZM166.314 244.161C166.314 295.59 206.453 335.103 257.882 335.103V310.015C224.014 310.015 192.028 280.538 192.028 244.161H166.314Z" fill="#199861"/>
<path fill-rule="evenodd" clip-rule="evenodd" d="M258.509 421.027C160.483 421.027 81.0174 341.561 81.0174 243.534C81.0174 212.106 89.1851 182.587 103.514 156.982L76 106.18L140.224 111.198C166.556 88.8219 203.222 66.0402 258.509 66.0402C262.673 51.7786 274.889 24.9222 301.556 26.0335C309.333 26.3576 321.556 31.0343 327.667 44.9256C353.778 25.4778 375.824 31.5019 383.778 35.4795C401.556 44.3699 411.556 67.7072 406 93.8227C412.111 94.934 425.333 100.157 429.333 112.159C433.333 124.161 433.778 141.053 414.333 159.291C428.101 184.355 436 213.047 436 243.534V243.536C436 291.88 436 382.142 434.119 421.027H287.986V485H202.69V458.658H261.645V421.027H258.509ZM108.613 243.534C108.613 341.561 187.01 394.685 258.509 394.685H407.777V243.534C407.777 145.507 325.617 95.5179 258.509 95.5179C160.483 95.5179 108.613 171.407 108.613 243.534Z" fill="#199861"/>
<path fill-rule="evenodd" clip-rule="evenodd" d="M222.132 133.776C238.439 133.776 245.965 146.947 245.965 155.728C245.965 164.508 240.948 180.188 223.387 180.188C205.826 180.188 199.554 166.39 199.554 155.728C199.554 145.066 208.335 133.776 222.132 133.776ZM166.314 244.161C166.314 295.59 206.453 335.103 257.882 335.103V310.015C224.014 310.015 192.028 280.538 192.028 244.161H166.314Z" fill="#199861"/>
</g>
<defs>
<filter id="filter0_d" x="60" y="10" width="392" height="491" filterUnits="userSpaceOnUse" color-interpolation-filters="sRGB">
<feFlood flood-opacity="0" result="BackgroundImageFix"/>
<feColorMatrix in="SourceAlpha" type="matrix" values="0 0 0 0 0 0 0 0 0 0 0 0 0 0 0 0 0 0 127 0"/>
<feOffset/>
<feGaussianBlur stdDeviation="8"/>
<feColorMatrix type="matrix" values="0 0 0 0 0 0 0 0 0 0 0 0 0 0 0 0 0 0 0.25 0"/>
<feBlend mode="normal" in2="BackgroundImageFix" result="effect1_dropShadow"/>
<feBlend mode="normal" in="SourceGraphic" in2="effect1_dropShadow" result="shape"/>
</filter>
</defs>
</svg>
